# xmcd
#
# Track frame offsets:
#	150
#	12825
#	29040
#	44787
#	56654
#	66263
#	84182
#	98061
#	108555
#	122407
#	134346
#	148235
#	164298
#	174523
#	187724
#	202229
#	217681
#	232488
#	246128
#	267899
#	284239
#	300375
#
# Disc length: 4158 seconds
#
# Revision: 1
# Processed by: cddbd v1.4PL0 Copyright (c) Steve Scherf et al.
# Submitted via: audiograbber 1.82.00
#
DISCID=4a103c16
DTITLE=Collection - Nashville - The Soundtrack and The New Generation Of Country 
DTITLE=Music
DYEAR=1900
DGENRE=
TTITLE0=Keith Carradine - It Don't Worry Me
TTITLE1=Timothy Brown - Bluebird
TTITLE2=Henry Gibson - For The Sake Of The Children
TTITLE3=Henry Gibson - Keep A Goin'
TTITLE4=Karen Black - Memphis
TTITLE5=Karen Black - Rolling Stone
TTITLE6=Henry Gibson - 200 Years
TTITLE7=Ronee Blakly - Tapedeck In His Traktor
TTITLE8=Keith Carradine - I'm Easy
TTITLE9=Gibson and Blakly - One, I Love You
TTITLE10=Ronee Blakly - My Idaho Home
TTITLE11=Eddie Rabbit - Rocky Mountain Music
TTITLE12=Stella Parton - Charlie's Baby
TTITLE13=Jonathan Edwards - People Get Ready
TTITLE14=Margo Smith - Heartaches By The Numbers
TTITLE15=Gram Parson - Brass Buttons
TTITLE16=Jesse Colin Young - Higher And Higher
TTITLE17=Ray Stevens - One Man Band
TTITLE18=Duane Eddy Feat. ... - You Are My Sunshine
TTITLE19=Donna Fargo - I Want To Learn A Lovesong
TTITLE20=Emmylou Harris - Boulder To Birmingham
TTITLE21=Hank Williams jr. - Mobile Boogie
EXTD=
EXTT0=
EXTT1=
EXTT2=
EXTT3=
EXTT4=
EXTT5=
EXTT6=
EXTT7=
EXTT8=
EXTT9=
EXTT10=
EXTT11=
EXTT12=
EXTT13=
EXTT14=
EXTT15=
EXTT16=
EXTT17=
EXTT18=
EXTT19=
EXTT20=
EXTT21=
PLAYORDER=
